<?xml version="1.0" encoding="utf-8" standalone="no"?>
<!DOCTYPE svg PUBLIC "-//W3C//DTD SVG 1.1//EN"
  "http://www.w3.org/Graphics/SVG/1.1/DTD/svg11.dtd">
<svg xmlns:xlink="http://www.w3.org/1999/xlink" width="576pt" height="216pt" viewBox="0 0 576 216" xmlns="http://www.w3.org/2000/svg" version="1.1">
 <metadata>
  <rdf:RDF xmlns:dc="http://purl.org/dc/elements/1.1/" xmlns:cc="http://creativecommons.org/ns#" xmlns:rdf="http://www.w3.org/1999/02/22-rdf-syntax-ns#">
   <cc:Work>
    <dc:type rdf:resource="http://purl.org/dc/dcmitype/StillImage"/>
    <dc:date>2025-05-11T11:34:28.841687</dc:date>
    <dc:format>image/svg+xml</dc:format>
    <dc:creator>
     <cc:Agent>
      <dc:title>Matplotlib v3.8.4, https://matplotlib.org/</dc:title>
     </cc:Agent>
    </dc:creator>
   </cc:Work>
  </rdf:RDF>
 </metadata>
 <defs>
  <style type="text/css">*{stroke-linejoin: round; stroke-linecap: butt}</style>
 </defs>
 <g id="figure_1">
  <g id="patch_1">
   <path d="M 0 216 
L 576 216 
L 576 0 
L 0 0 
z
" style="fill: #ffffff"/>
  </g>
  <g id="axes_1">
   <g id="patch_2">
    <path d="M 50.87 149.388419 
L 509.38 149.388419 
L 509.38 14.76 
L 50.87 14.76 
z
" style="fill: #ffffff"/>
   </g>
   <g id="patch_3">
    <path d="M 65.676928 149.388419 
L 86.541237 149.388419 
L 86.541237 149.388419 
L 65.676928 149.388419 
z
" clip-path="url(#pdd473ab482)" style="fill: #b2b2b2"/>
   </g>
   <g id="patch_4">
    <path d="M 92.766877 149.388419 
L 111.612059 149.388419 
L 111.612059 149.388419 
L 92.766877 149.388419 
z
" clip-path="url(#pdd473ab482)" style="fill: #b2b2b2"/>
   </g>
   <g id="patch_5">
    <path d="M 115.313791 149.388419 
L 136.178099 149.388419 
L 136.178099 111.961718 
L 115.313791 111.961718 
z
" clip-path="url(#pdd473ab482)" style="fill: #b2b2b2"/>
   </g>
   <g id="patch_6">
    <path d="M 141.730697 149.388419 
L 161.921963 149.388419 
L 161.921963 149.388419 
L 141.730697 149.388419 
z
" clip-path="url(#pdd473ab482)" style="fill: #b2b2b2"/>
   </g>
   <g id="patch_7">
    <path d="M 166.633259 149.388419 
L 187.497567 149.388419 
L 187.497567 72.65022 
L 166.633259 72.65022 
z
" clip-path="url(#pdd473ab482)" style="fill: #b2b2b2"/>
   </g>
   <g id="patch_8">
    <path d="M 193.050165 149.388419 
L 213.241431 149.388419 
L 213.241431 27.415071 
L 193.050165 27.415071 
z
" clip-path="url(#pdd473ab482)" style="fill: #b2b2b2"/>
   </g>
   <g id="patch_9">
    <path d="M 217.952727 149.388419 
L 238.817035 149.388419 
L 238.817035 149.388419 
L 217.952727 149.388419 
z
" clip-path="url(#pdd473ab482)" style="fill: #b2b2b2"/>
   </g>
   <g id="patch_10">
    <path d="M 244.033112 149.388419 
L 264.89742 149.388419 
L 264.89742 71.034679 
L 244.033112 71.034679 
z
" clip-path="url(#pdd473ab482)" style="fill: #b2b2b2"/>
   </g>
   <g id="patch_11">
    <path d="M 270.450018 149.388419 
L 290.641284 149.388419 
L 290.641284 141.849227 
L 270.450018 141.849227 
z
" clip-path="url(#pdd473ab482)" style="fill: #b2b2b2"/>
   </g>
   <g id="patch_12">
    <path d="M 295.35258 149.388419 
L 316.216888 149.388419 
L 316.216888 149.388419 
L 295.35258 149.388419 
z
" clip-path="url(#pdd473ab482)" style="fill: #b2b2b2"/>
   </g>
   <g id="patch_13">
    <path d="M 321.769486 149.388419 
L 341.960752 149.388419 
L 341.960752 147.234364 
L 321.769486 147.234364 
z
" clip-path="url(#pdd473ab482)" style="fill: #b2b2b2"/>
   </g>
   <g id="patch_14">
    <path d="M 346.672048 149.388419 
L 367.536356 149.388419 
L 367.536356 149.388419 
L 346.672048 149.388419 
z
" clip-path="url(#pdd473ab482)" style="fill: #b2b2b2"/>
   </g>
   <g id="patch_15">
    <path d="M 372.752433 149.388419 
L 393.616741 149.388419 
L 393.616741 149.388419 
L 372.752433 149.388419 
z
" clip-path="url(#pdd473ab482)" style="fill: #b2b2b2"/>
   </g>
   <g id="patch_16">
    <path d="M 399.842382 149.388419 
L 418.687563 149.388419 
L 418.687563 149.388419 
L 399.842382 149.388419 
z
" clip-path="url(#pdd473ab482)" style="fill: #b2b2b2"/>
   </g>
   <g id="patch_17">
    <path d="M 422.389295 149.388419 
L 443.253604 149.388419 
L 443.253604 149.388419 
L 422.389295 149.388419 
z
" clip-path="url(#pdd473ab482)" style="fill: #b2b2b2"/>
   </g>
   <g id="patch_18">
    <path d="M 448.806202 149.388419 
L 468.997468 149.388419 
L 468.997468 149.388419 
L 448.806202 149.388419 
z
" clip-path="url(#pdd473ab482)" style="fill: #b2b2b2"/>
   </g>
   <g id="matplotlib.axis_1">
    <g id="xtick_1">
     <g id="line2d_1">
      <defs>
       <path id="m96a2b88d4d" d="M 0 0 
L 0 3.5 
" style="stroke: #000000; stroke-width: 0.8"/>
      </defs>
      <g>
       <use xlink:href="#m96a2b88d4d" x="76.950385" y="149.388419" style="stroke: #000000; stroke-width: 0.8"/>
      </g>
     </g>
     <g id="text_1">
      <!-- Jan 2022 -->
      <g transform="translate(63.329741 192.90496) rotate(-45) scale(0.1 -0.1)">
       <defs>
        <path id="DejaVuSans-4a" d="M 628 4666 
L 1259 4666 
L 1259 325 
Q 1259 -519 939 -900 
Q 619 -1281 -91 -1281 
L -331 -1281 
L -331 -750 
L -134 -750 
Q 284 -750 456 -515 
Q 628 -281 628 325 
L 628 4666 
z
" transform="scale(0.015625)"/>
        <path id="DejaVuSans-61" d="M 2194 1759 
Q 1497 1759 1228 1600 
Q 959 1441 959 1056 
Q 959 750 1161 570 
Q 1363 391 1709 391 
Q 2188 391 2477 730 
Q 2766 1069 2766 1631 
L 2766 1759 
L 2194 1759 
z
M 3341 1997 
L 3341 0 
L 2766 0 
L 2766 531 
Q 2569 213 2275 61 
Q 1981 -91 1556 -91 
Q 1019 -91 701 211 
Q 384 513 384 1019 
Q 384 1609 779 1909 
Q 1175 2209 1959 2209 
L 2766 2209 
L 2766 2266 
Q 2766 2663 2505 2880 
Q 2244 3097 1772 3097 
Q 1472 3097 1187 3025 
Q 903 2953 641 2809 
L 641 3341 
Q 956 3463 1253 3523 
Q 1550 3584 1831 3584 
Q 2591 3584 2966 3190 
Q 3341 2797 3341 1997 
z
" transform="scale(0.015625)"/>
        <path id="DejaVuSans-6e" d="M 3513 2113 
L 3513 0 
L 2938 0 
L 2938 2094 
Q 2938 2591 2744 2837 
Q 2550 3084 2163 3084 
Q 1697 3084 1428 2787 
Q 1159 2491 1159 1978 
L 1159 0 
L 581 0 
L 581 3500 
L 1159 3500 
L 1159 2956 
Q 1366 3272 1645 3428 
Q 1925 3584 2291 3584 
Q 2894 3584 3203 3211 
Q 3513 2838 3513 2113 
z
" transform="scale(0.015625)"/>
        <path id="DejaVuSans-20" transform="scale(0.015625)"/>
        <path id="DejaVuSans-32" d="M 1228 531 
L 3431 531 
L 3431 0 
L 469 0 
L 469 531 
Q 828 903 1448 1529 
Q 2069 2156 2228 2338 
Q 2531 2678 2651 2914 
Q 2772 3150 2772 3378 
Q 2772 3750 2511 3984 
Q 2250 4219 1831 4219 
Q 1534 4219 1204 4116 
Q 875 4013 500 3803 
L 500 4441 
Q 881 4594 1212 4672 
Q 1544 4750 1819 4750 
Q 2544 4750 2975 4387 
Q 3406 4025 3406 3419 
Q 3406 3131 3298 2873 
Q 3191 2616 2906 2266 
Q 2828 2175 2409 1742 
Q 1991 1309 1228 531 
z
" transform="scale(0.015625)"/>
        <path id="DejaVuSans-30" d="M 2034 4250 
Q 1547 4250 1301 3770 
Q 1056 3291 1056 2328 
Q 1056 1369 1301 889 
Q 1547 409 2034 409 
Q 2525 409 2770 889 
Q 3016 1369 3016 2328 
Q 3016 3291 2770 3770 
Q 2525 4250 2034 4250 
z
M 2034 4750 
Q 2819 4750 3233 4129 
Q 3647 3509 3647 2328 
Q 3647 1150 3233 529 
Q 2819 -91 2034 -91 
Q 1250 -91 836 529 
Q 422 1150 422 2328 
Q 422 3509 836 4129 
Q 1250 4750 2034 4750 
z
" transform="scale(0.015625)"/>
       </defs>
       <use xlink:href="#DejaVuSans-4a"/>
       <use xlink:href="#DejaVuSans-61" x="29.492188"/>
       <use xlink:href="#DejaVuSans-6e" x="90.771484"/>
       <use xlink:href="#DejaVuSans-20" x="154.150391"/>
       <use xlink:href="#DejaVuSans-32" x="185.9375"/>
       <use xlink:href="#DejaVuSans-30" x="249.560547"/>
       <use xlink:href="#DejaVuSans-32" x="313.183594"/>
       <use xlink:href="#DejaVuSans-32" x="376.806641"/>
      </g>
     </g>
    </g>
    <g id="xtick_2">
     <g id="line2d_2">
      <g>
       <use xlink:href="#m96a2b88d4d" x="126.587248" y="149.388419" style="stroke: #000000; stroke-width: 0.8"/>
      </g>
     </g>
     <g id="text_2">
      <!-- March 2022 -->
      <g transform="translate(107.641205 203.555756) rotate(-45) scale(0.1 -0.1)">
       <defs>
        <path id="DejaVuSans-4d" d="M 628 4666 
L 1569 4666 
L 2759 1491 
L 3956 4666 
L 4897 4666 
L 4897 0 
L 4281 0 
L 4281 4097 
L 3078 897 
L 2444 897 
L 1241 4097 
L 1241 0 
L 628 0 
L 628 4666 
z
" transform="scale(0.015625)"/>
        <path id="DejaVuSans-72" d="M 2631 2963 
Q 2534 3019 2420 3045 
Q 2306 3072 2169 3072 
Q 1681 3072 1420 2755 
Q 1159 2438 1159 1844 
L 1159 0 
L 581 0 
L 581 3500 
L 1159 3500 
L 1159 2956 
Q 1341 3275 1631 3429 
Q 1922 3584 2338 3584 
Q 2397 3584 2469 3576 
Q 2541 3569 2628 3553 
L 2631 2963 
z
" transform="scale(0.015625)"/>
        <path id="DejaVuSans-63" d="M 3122 3366 
L 3122 2828 
Q 2878 2963 2633 3030 
Q 2388 3097 2138 3097 
Q 1578 3097 1268 2742 
Q 959 2388 959 1747 
Q 959 1106 1268 751 
Q 1578 397 2138 397 
Q 2388 397 2633 464 
Q 2878 531 3122 666 
L 3122 134 
Q 2881 22 2623 -34 
Q 2366 -91 2075 -91 
Q 1284 -91 818 406 
Q 353 903 353 1747 
Q 353 2603 823 3093 
Q 1294 3584 2113 3584 
Q 2378 3584 2631 3529 
Q 2884 3475 3122 3366 
z
" transform="scale(0.015625)"/>
        <path id="DejaVuSans-68" d="M 3513 2113 
L 3513 0 
L 2938 0 
L 2938 2094 
Q 2938 2591 2744 2837 
Q 2550 3084 2163 3084 
Q 1697 3084 1428 2787 
Q 1159 2491 1159 1978 
L 1159 0 
L 581 0 
L 581 4863 
L 1159 4863 
L 1159 2956 
Q 1366 3272 1645 3428 
Q 1925 3584 2291 3584 
Q 2894 3584 3203 3211 
Q 3513 2838 3513 2113 
z
" transform="scale(0.015625)"/>
       </defs>
       <use xlink:href="#DejaVuSans-4d"/>
       <use xlink:href="#DejaVuSans-61" x="86.279297"/>
       <use xlink:href="#DejaVuSans-72" x="147.558594"/>
       <use xlink:href="#DejaVuSans-63" x="186.421875"/>
       <use xlink:href="#DejaVuSans-68" x="241.402344"/>
       <use xlink:href="#DejaVuSans-20" x="304.78125"/>
       <use xlink:href="#DejaVuSans-32" x="336.568359"/>
       <use xlink:href="#DejaVuSans-30" x="400.191406"/>
       <use xlink:href="#DejaVuSans-32" x="463.814453"/>
       <use xlink:href="#DejaVuSans-32" x="527.4375"/>
      </g>
     </g>
    </g>
    <g id="xtick_3">
     <g id="line2d_3">
      <g>
       <use xlink:href="#m96a2b88d4d" x="177.906716" y="149.388419" style="stroke: #000000; stroke-width: 0.8"/>
      </g>
     </g>
     <g id="text_3">
      <!-- May 2022 -->
      <g transform="translate(162.426601 196.6239) rotate(-45) scale(0.1 -0.1)">
       <defs>
        <path id="DejaVuSans-79" d="M 2059 -325 
Q 1816 -950 1584 -1140 
Q 1353 -1331 966 -1331 
L 506 -1331 
L 506 -850 
L 844 -850 
Q 1081 -850 1212 -737 
Q 1344 -625 1503 -206 
L 1606 56 
L 191 3500 
L 800 3500 
L 1894 763 
L 2988 3500 
L 3597 3500 
L 2059 -325 
z
" transform="scale(0.015625)"/>
       </defs>
       <use xlink:href="#DejaVuSans-4d"/>
       <use xlink:href="#DejaVuSans-61" x="86.279297"/>
       <use xlink:href="#DejaVuSans-79" x="147.558594"/>
       <use xlink:href="#DejaVuSans-20" x="206.738281"/>
       <use xlink:href="#DejaVuSans-32" x="238.525391"/>
       <use xlink:href="#DejaVuSans-30" x="302.148438"/>
       <use xlink:href="#DejaVuSans-32" x="365.771484"/>
       <use xlink:href="#DejaVuSans-32" x="429.394531"/>
      </g>
     </g>
    </g>
    <g id="xtick_4">
     <g id="line2d_4">
      <g>
       <use xlink:href="#m96a2b88d4d" x="229.226183" y="149.388419" style="stroke: #000000; stroke-width: 0.8"/>
      </g>
     </g>
     <g id="text_4">
      <!-- July 2022 -->
      <g transform="translate(214.697349 194.72134) rotate(-45) scale(0.1 -0.1)">
       <defs>
        <path id="DejaVuSans-75" d="M 544 1381 
L 544 3500 
L 1119 3500 
L 1119 1403 
Q 1119 906 1312 657 
Q 1506 409 1894 409 
Q 2359 409 2629 706 
Q 2900 1003 2900 1516 
L 2900 3500 
L 3475 3500 
L 3475 0 
L 2900 0 
L 2900 538 
Q 2691 219 2414 64 
Q 2138 -91 1772 -91 
Q 1169 -91 856 284 
Q 544 659 544 1381 
z
M 1991 3584 
L 1991 3584 
z
" transform="scale(0.015625)"/>
        <path id="DejaVuSans-6c" d="M 603 4863 
L 1178 4863 
L 1178 0 
L 603 0 
L 603 4863 
z
" transform="scale(0.015625)"/>
       </defs>
       <use xlink:href="#DejaVuSans-4a"/>
       <use xlink:href="#DejaVuSans-75" x="29.492188"/>
       <use xlink:href="#DejaVuSans-6c" x="92.871094"/>
       <use xlink:href="#DejaVuSans-79" x="120.654297"/>
       <use xlink:href="#DejaVuSans-20" x="179.833984"/>
       <use xlink:href="#DejaVuSans-32" x="211.621094"/>
       <use xlink:href="#DejaVuSans-30" x="275.244141"/>
       <use xlink:href="#DejaVuSans-32" x="338.867188"/>
       <use xlink:href="#DejaVuSans-32" x="402.490234"/>
      </g>
     </g>
    </g>
    <g id="xtick_5">
     <g id="line2d_5">
      <g>
       <use xlink:href="#m96a2b88d4d" x="281.386954" y="149.388419" style="stroke: #000000; stroke-width: 0.8"/>
      </g>
     </g>
     <g id="text_5">
      <!-- Sept 2022 -->
      <g transform="translate(265.166035 198.105509) rotate(-45) scale(0.1 -0.1)">
       <defs>
        <path id="DejaVuSans-53" d="M 3425 4513 
L 3425 3897 
Q 3066 4069 2747 4153 
Q 2428 4238 2131 4238 
Q 1616 4238 1336 4038 
Q 1056 3838 1056 3469 
Q 1056 3159 1242 3001 
Q 1428 2844 1947 2747 
L 2328 2669 
Q 3034 2534 3370 2195 
Q 3706 1856 3706 1288 
Q 3706 609 3251 259 
Q 2797 -91 1919 -91 
Q 1588 -91 1214 -16 
Q 841 59 441 206 
L 441 856 
Q 825 641 1194 531 
Q 1563 422 1919 422 
Q 2459 422 2753 634 
Q 3047 847 3047 1241 
Q 3047 1584 2836 1778 
Q 2625 1972 2144 2069 
L 1759 2144 
Q 1053 2284 737 2584 
Q 422 2884 422 3419 
Q 422 4038 858 4394 
Q 1294 4750 2059 4750 
Q 2388 4750 2728 4690 
Q 3069 4631 3425 4513 
z
" transform="scale(0.015625)"/>
        <path id="DejaVuSans-65" d="M 3597 1894 
L 3597 1613 
L 953 1613 
Q 991 1019 1311 708 
Q 1631 397 2203 397 
Q 2534 397 2845 478 
Q 3156 559 3463 722 
L 3463 178 
Q 3153 47 2828 -22 
Q 2503 -91 2169 -91 
Q 1331 -91 842 396 
Q 353 884 353 1716 
Q 353 2575 817 3079 
Q 1281 3584 2069 3584 
Q 2775 3584 3186 3129 
Q 3597 2675 3597 1894 
z
M 3022 2063 
Q 3016 2534 2758 2815 
Q 2500 3097 2075 3097 
Q 1594 3097 1305 2825 
Q 1016 2553 972 2059 
L 3022 2063 
z
" transform="scale(0.015625)"/>
        <path id="DejaVuSans-70" d="M 1159 525 
L 1159 -1331 
L 581 -1331 
L 581 3500 
L 1159 3500 
L 1159 2969 
Q 1341 3281 1617 3432 
Q 1894 3584 2278 3584 
Q 2916 3584 3314 3078 
Q 3713 2572 3713 1747 
Q 3713 922 3314 415 
Q 2916 -91 2278 -91 
Q 1894 -91 1617 61 
Q 1341 213 1159 525 
z
M 3116 1747 
Q 3116 2381 2855 2742 
Q 2594 3103 2138 3103 
Q 1681 3103 1420 2742 
Q 1159 2381 1159 1747 
Q 1159 1113 1420 752 
Q 1681 391 2138 391 
Q 2594 391 2855 752 
Q 3116 1113 3116 1747 
z
" transform="scale(0.015625)"/>
        <path id="DejaVuSans-74" d="M 1172 4494 
L 1172 3500 
L 2356 3500 
L 2356 3053 
L 1172 3053 
L 1172 1153 
Q 1172 725 1289 603 
Q 1406 481 1766 481 
L 2356 481 
L 2356 0 
L 1766 0 
Q 1100 0 847 248 
Q 594 497 594 1153 
L 594 3053 
L 172 3053 
L 172 3500 
L 594 3500 
L 594 4494 
L 1172 4494 
z
" transform="scale(0.015625)"/>
       </defs>
       <use xlink:href="#DejaVuSans-53"/>
       <use xlink:href="#DejaVuSans-65" x="63.476562"/>
       <use xlink:href="#DejaVuSans-70" x="125"/>
       <use xlink:href="#DejaVuSans-74" x="188.476562"/>
       <use xlink:href="#DejaVuSans-20" x="227.685547"/>
       <use xlink:href="#DejaVuSans-32" x="259.472656"/>
       <use xlink:href="#DejaVuSans-30" x="323.095703"/>
       <use xlink:href="#DejaVuSans-32" x="386.71875"/>
       <use xlink:href="#DejaVuSans-32" x="450.341797"/>
      </g>
     </g>
    </g>
    <g id="xtick_6">
     <g id="line2d_6">
      <g>
       <use xlink:href="#m96a2b88d4d" x="332.706422" y="149.388419" style="stroke: #000000; stroke-width: 0.8"/>
      </g>
     </g>
     <g id="text_6">
      <!-- Nov 2022 -->
      <g transform="translate(317.635104 195.806307) rotate(-45) scale(0.1 -0.1)">
       <defs>
        <path id="DejaVuSans-4e" d="M 628 4666 
L 1478 4666 
L 3547 763 
L 3547 4666 
L 4159 4666 
L 4159 0 
L 3309 0 
L 1241 3903 
L 1241 0 
L 628 0 
L 628 4666 
z
" transform="scale(0.015625)"/>
        <path id="DejaVuSans-6f" d="M 1959 3097 
Q 1497 3097 1228 2736 
Q 959 2375 959 1747 
Q 959 1119 1226 758 
Q 1494 397 1959 397 
Q 2419 397 2687 759 
Q 2956 1122 2956 1747 
Q 2956 2369 2687 2733 
Q 2419 3097 1959 3097 
z
M 1959 3584 
Q 2709 3584 3137 3096 
Q 3566 2609 3566 1747 
Q 3566 888 3137 398 
Q 2709 -91 1959 -91 
Q 1206 -91 779 398 
Q 353 888 353 1747 
Q 353 2609 779 3096 
Q 1206 3584 1959 3584 
z
" transform="scale(0.015625)"/>
        <path id="DejaVuSans-76" d="M 191 3500 
L 800 3500 
L 1894 563 
L 2988 3500 
L 3597 3500 
L 2284 0 
L 1503 0 
L 191 3500 
z
" transform="scale(0.015625)"/>
       </defs>
       <use xlink:href="#DejaVuSans-4e"/>
       <use xlink:href="#DejaVuSans-6f" x="74.804688"/>
       <use xlink:href="#DejaVuSans-76" x="135.986328"/>
       <use xlink:href="#DejaVuSans-20" x="195.166016"/>
       <use xlink:href="#DejaVuSans-32" x="226.953125"/>
       <use xlink:href="#DejaVuSans-30" x="290.576172"/>
       <use xlink:href="#DejaVuSans-32" x="354.199219"/>
       <use xlink:href="#DejaVuSans-32" x="417.822266"/>
      </g>
     </g>
    </g>
    <g id="xtick_7">
     <g id="line2d_7">
      <g>
       <use xlink:href="#m96a2b88d4d" x="384.02589" y="149.388419" style="stroke: #000000; stroke-width: 0.8"/>
      </g>
     </g>
     <g id="text_7">
      <!-- Jan 2023 -->
      <g transform="translate(370.405246 192.90496) rotate(-45) scale(0.1 -0.1)">
       <defs>
        <path id="DejaVuSans-33" d="M 2597 2516 
Q 3050 2419 3304 2112 
Q 3559 1806 3559 1356 
Q 3559 666 3084 287 
Q 2609 -91 1734 -91 
Q 1441 -91 1130 -33 
Q 819 25 488 141 
L 488 750 
Q 750 597 1062 519 
Q 1375 441 1716 441 
Q 2309 441 2620 675 
Q 2931 909 2931 1356 
Q 2931 1769 2642 2001 
Q 2353 2234 1838 2234 
L 1294 2234 
L 1294 2753 
L 1863 2753 
Q 2328 2753 2575 2939 
Q 2822 3125 2822 3475 
Q 2822 3834 2567 4026 
Q 2313 4219 1838 4219 
Q 1578 4219 1281 4162 
Q 984 4106 628 3988 
L 628 4550 
Q 988 4650 1302 4700 
Q 1616 4750 1894 4750 
Q 2613 4750 3031 4423 
Q 3450 4097 3450 3541 
Q 3450 3153 3228 2886 
Q 3006 2619 2597 2516 
z
" transform="scale(0.015625)"/>
       </defs>
       <use xlink:href="#DejaVuSans-4a"/>
       <use xlink:href="#DejaVuSans-61" x="29.492188"/>
       <use xlink:href="#DejaVuSans-6e" x="90.771484"/>
       <use xlink:href="#DejaVuSans-20" x="154.150391"/>
       <use xlink:href="#DejaVuSans-32" x="185.9375"/>
       <use xlink:href="#DejaVuSans-30" x="249.560547"/>
       <use xlink:href="#DejaVuSans-32" x="313.183594"/>
       <use xlink:href="#DejaVuSans-33" x="376.806641"/>
      </g>
     </g>
    </g>
    <g id="xtick_8">
     <g id="line2d_8">
      <g>
       <use xlink:href="#m96a2b88d4d" x="433.662752" y="149.388419" style="stroke: #000000; stroke-width: 0.8"/>
      </g>
     </g>
     <g id="text_8">
      <!-- March 2023 -->
      <g transform="translate(414.71671 203.555756) rotate(-45) scale(0.1 -0.1)">
       <use xlink:href="#DejaVuSans-4d"/>
       <use xlink:href="#DejaVuSans-61" x="86.279297"/>
       <use xlink:href="#DejaVuSans-72" x="147.558594"/>
       <use xlink:href="#DejaVuSans-63" x="186.421875"/>
       <use xlink:href="#DejaVuSans-68" x="241.402344"/>
       <use xlink:href="#DejaVuSans-20" x="304.78125"/>
       <use xlink:href="#DejaVuSans-32" x="336.568359"/>
       <use xlink:href="#DejaVuSans-30" x="400.191406"/>
       <use xlink:href="#DejaVuSans-32" x="463.814453"/>
       <use xlink:href="#DejaVuSans-33" x="527.4375"/>
      </g>
     </g>
    </g>
    <g id="xtick_9">
     <g id="line2d_9">
      <g>
       <use xlink:href="#m96a2b88d4d" x="484.98222" y="149.388419" style="stroke: #000000; stroke-width: 0.8"/>
      </g>
     </g>
     <g id="text_9">
      <!-- May 2023 -->
      <g transform="translate(469.502106 196.6239) rotate(-45) scale(0.1 -0.1)">
       <use xlink:href="#DejaVuSans-4d"/>
       <use xlink:href="#DejaVuSans-61" x="86.279297"/>
       <use xlink:href="#DejaVuSans-79" x="147.558594"/>
       <use xlink:href="#DejaVuSans-20" x="206.738281"/>
       <use xlink:href="#DejaVuSans-32" x="238.525391"/>
       <use xlink:href="#DejaVuSans-30" x="302.148438"/>
       <use xlink:href="#DejaVuSans-32" x="365.771484"/>
       <use xlink:href="#DejaVuSans-33" x="429.394531"/>
      </g>
     </g>
    </g>
   </g>
   <g id="matplotlib.axis_2">
    <g id="ytick_1">
     <g id="line2d_10">
      <defs>
       <path id="mc7a37630ed" d="M 0 0 
L -3.5 0 
" style="stroke: #000000; stroke-width: 0.8"/>
      </defs>
      <g>
       <use xlink:href="#mc7a37630ed" x="50.87" y="149.388419" style="stroke: #000000; stroke-width: 0.8"/>
      </g>
     </g>
     <g id="text_10">
      <!-- 0 -->
      <g transform="translate(37.5075 153.187638) scale(0.1 -0.1)">
       <use xlink:href="#DejaVuSans-30"/>
      </g>
     </g>
    </g>
    <g id="ytick_2">
     <g id="line2d_11">
      <g>
       <use xlink:href="#mc7a37630ed" x="50.87" y="122.462735" style="stroke: #000000; stroke-width: 0.8"/>
      </g>
     </g>
     <g id="text_11">
      <!-- 100 -->
      <g transform="translate(24.7825 126.261954) scale(0.1 -0.1)">
       <defs>
        <path id="DejaVuSans-31" d="M 794 531 
L 1825 531 
L 1825 4091 
L 703 3866 
L 703 4441 
L 1819 4666 
L 2450 4666 
L 2450 531 
L 3481 531 
L 3481 0 
L 794 0 
L 794 531 
z
" transform="scale(0.015625)"/>
       </defs>
       <use xlink:href="#DejaVuSans-31"/>
       <use xlink:href="#DejaVuSans-30" x="63.623047"/>
       <use xlink:href="#DejaVuSans-30" x="127.246094"/>
      </g>
     </g>
    </g>
    <g id="ytick_3">
     <g id="line2d_12">
      <g>
       <use xlink:href="#mc7a37630ed" x="50.87" y="95.537051" style="stroke: #000000; stroke-width: 0.8"/>
      </g>
     </g>
     <g id="text_12">
      <!-- 200 -->
      <g transform="translate(24.7825 99.33627) scale(0.1 -0.1)">
       <use xlink:href="#DejaVuSans-32"/>
       <use xlink:href="#DejaVuSans-30" x="63.623047"/>
       <use xlink:href="#DejaVuSans-30" x="127.246094"/>
      </g>
     </g>
    </g>
    <g id="ytick_4">
     <g id="line2d_13">
      <g>
       <use xlink:href="#mc7a37630ed" x="50.87" y="68.611368" style="stroke: #000000; stroke-width: 0.8"/>
      </g>
     </g>
     <g id="text_13">
      <!-- 300 -->
      <g transform="translate(24.7825 72.410586) scale(0.1 -0.1)">
       <use xlink:href="#DejaVuSans-33"/>
       <use xlink:href="#DejaVuSans-30" x="63.623047"/>
       <use xlink:href="#DejaVuSans-30" x="127.246094"/>
      </g>
     </g>
    </g>
    <g id="ytick_5">
     <g id="line2d_14">
      <g>
       <use xlink:href="#mc7a37630ed" x="50.87" y="41.685684" style="stroke: #000000; stroke-width: 0.8"/>
      </g>
     </g>
     <g id="text_14">
      <!-- 400 -->
      <g transform="translate(24.7825 45.484903) scale(0.1 -0.1)">
       <defs>
        <path id="DejaVuSans-34" d="M 2419 4116 
L 825 1625 
L 2419 1625 
L 2419 4116 
z
M 2253 4666 
L 3047 4666 
L 3047 1625 
L 3713 1625 
L 3713 1100 
L 3047 1100 
L 3047 0 
L 2419 0 
L 2419 1100 
L 313 1100 
L 313 1709 
L 2253 4666 
z
" transform="scale(0.015625)"/>
       </defs>
       <use xlink:href="#DejaVuSans-34"/>
       <use xlink:href="#DejaVuSans-30" x="63.623047"/>
       <use xlink:href="#DejaVuSans-30" x="127.246094"/>
      </g>
     </g>
    </g>
    <g id="ytick_6">
     <g id="line2d_15">
      <g>
       <use xlink:href="#mc7a37630ed" x="50.87" y="14.76" style="stroke: #000000; stroke-width: 0.8"/>
      </g>
     </g>
     <g id="text_15">
      <!-- 500 -->
      <g transform="translate(24.7825 18.559219) scale(0.1 -0.1)">
       <defs>
        <path id="DejaVuSans-35" d="M 691 4666 
L 3169 4666 
L 3169 4134 
L 1269 4134 
L 1269 2991 
Q 1406 3038 1543 3061 
Q 1681 3084 1819 3084 
Q 2600 3084 3056 2656 
Q 3513 2228 3513 1497 
Q 3513 744 3044 326 
Q 2575 -91 1722 -91 
Q 1428 -91 1123 -41 
Q 819 9 494 109 
L 494 744 
Q 775 591 1075 516 
Q 1375 441 1709 441 
Q 2250 441 2565 725 
Q 2881 1009 2881 1497 
Q 2881 1984 2565 2268 
Q 2250 2553 1709 2553 
Q 1456 2553 1204 2497 
Q 953 2441 691 2322 
L 691 4666 
z
" transform="scale(0.015625)"/>
       </defs>
       <use xlink:href="#DejaVuSans-35"/>
       <use xlink:href="#DejaVuSans-30" x="63.623047"/>
       <use xlink:href="#DejaVuSans-30" x="127.246094"/>
      </g>
     </g>
    </g>
    <g id="text_16">
     <!-- election count -->
     <g transform="translate(18.702813 117.638272) rotate(-90) scale(0.1 -0.1)">
      <defs>
       <path id="DejaVuSans-69" d="M 603 3500 
L 1178 3500 
L 1178 0 
L 603 0 
L 603 3500 
z
M 603 4863 
L 1178 4863 
L 1178 4134 
L 603 4134 
L 603 4863 
z
" transform="scale(0.015625)"/>
      </defs>
      <use xlink:href="#DejaVuSans-65"/>
      <use xlink:href="#DejaVuSans-6c" x="61.523438"/>
      <use xlink:href="#DejaVuSans-65" x="89.306641"/>
      <use xlink:href="#DejaVuSans-63" x="150.830078"/>
      <use xlink:href="#DejaVuSans-74" x="205.810547"/>
      <use xlink:href="#DejaVuSans-69" x="245.019531"/>
      <use xlink:href="#DejaVuSans-6f" x="272.802734"/>
      <use xlink:href="#DejaVuSans-6e" x="333.984375"/>
      <use xlink:href="#DejaVuSans-20" x="397.363281"/>
      <use xlink:href="#DejaVuSans-63" x="429.150391"/>
      <use xlink:href="#DejaVuSans-6f" x="484.130859"/>
      <use xlink:href="#DejaVuSans-75" x="545.3125"/>
      <use xlink:href="#DejaVuSans-6e" x="608.691406"/>
      <use xlink:href="#DejaVuSans-74" x="672.070312"/>
     </g>
    </g>
   </g>
   <g id="patch_19">
    <path d="M 50.87 149.388419 
L 50.87 14.76 
" style="fill: none; stroke: #000000; stroke-width: 0.8; stroke-linejoin: miter; stroke-linecap: square"/>
   </g>
   <g id="patch_20">
    <path d="M 50.87 149.388419 
L 509.38 149.388419 
" style="fill: none; stroke: #000000; stroke-width: 0.8; stroke-linejoin: miter; stroke-linecap: square"/>
   </g>
  </g>
  <g id="axes_2">
   <g id="PolyCollection_1">
    <defs>
     <path id="m3832489fef" d="M 206.736637 -66.621734 
L 206.736637 -66.611581 
L 208.205618 -66.611581 
L 209.674599 -66.611581 
L 211.143581 -66.611581 
L 212.612562 -66.611581 
L 214.081543 -66.611581 
L 215.550524 -66.611581 
L 217.019505 -66.611581 
L 218.488487 -66.611581 
L 219.957468 -66.611581 
L 221.426449 -66.611581 
L 222.89543 -66.611581 
L 224.364412 -66.611581 
L 225.833393 -66.611581 
L 227.302374 -66.611581 
L 228.771355 -66.611581 
L 230.240336 -66.611581 
L 231.709318 -66.611581 
L 233.178299 -66.611581 
L 234.64728 -66.611581 
L 236.116261 -66.611581 
L 237.585243 -66.611581 
L 239.054224 -66.611581 
L 240.523205 -66.611581 
L 241.992186 -66.611581 
L 243.461167 -66.611581 
L 244.930149 -66.611581 
L 246.39913 -66.611581 
L 247.868111 -66.611581 
L 249.337092 -66.611581 
L 250.806074 -66.611581 
L 252.275055 -66.611581 
L 253.744036 -66.611581 
L 255.213017 -66.611581 
L 256.681998 -66.611581 
L 258.15098 -66.611581 
L 259.619961 -66.611581 
L 261.088942 -66.611581 
L 262.557923 -66.611581 
L 264.026905 -66.611581 
L 265.495886 -66.611581 
L 266.964867 -66.611581 
L 268.433848 -66.611581 
L 269.902829 -66.611581 
L 271.371811 -66.611581 
L 272.840792 -66.611581 
L 274.309773 -66.611581 
L 275.778754 -66.611581 
L 277.247736 -66.611581 
L 278.716717 -66.611581 
L 280.185698 -66.611581 
L 281.654679 -66.611581 
L 283.12366 -66.611581 
L 284.592642 -66.611581 
L 286.061623 -66.611581 
L 287.530604 -66.611581 
L 288.999585 -66.611581 
L 290.468567 -66.611581 
L 291.937548 -66.611581 
L 293.406529 -66.611581 
L 294.87551 -66.611581 
L 296.344491 -66.611581 
L 297.813473 -66.611581 
L 299.282454 -66.611581 
L 300.751435 -66.611581 
L 302.220416 -66.611581 
L 303.689398 -66.611581 
L 305.158379 -66.611581 
L 306.62736 -66.611581 
L 308.096341 -66.611581 
L 309.565322 -66.611581 
L 311.034304 -66.611581 
L 312.503285 -66.611581 
L 313.972266 -66.611581 
L 315.441247 -66.611581 
L 316.910229 -66.611581 
L 318.37921 -66.611581 
L 319.848191 -66.611581 
L 321.317172 -66.611581 
L 322.786153 -66.611581 
L 324.255135 -66.611581 
L 325.724116 -66.611581 
L 327.193097 -66.611581 
L 328.662078 -66.611581 
L 330.13106 -66.611581 
L 331.600041 -66.611581 
L 333.069022 -66.611581 
L 334.538003 -66.611581 
L 336.006984 -66.611581 
L 337.475966 -66.611581 
L 338.944947 -66.611581 
L 340.413928 -66.611581 
L 341.882909 -66.611581 
L 343.351891 -66.611581 
L 344.820872 -66.611581 
L 346.289853 -66.611581 
L 347.758834 -66.611581 
L 349.227815 -66.611581 
L 350.696797 -66.611581 
L 352.165778 -66.611581 
L 353.634759 -66.611581 
L 355.10374 -66.611581 
L 356.572722 -66.611581 
L 358.041703 -66.611581 
L 359.510684 -66.611581 
L 360.979665 -66.611581 
L 362.448646 -66.611581 
L 363.917628 -66.611581 
L 365.386609 -66.611581 
L 366.85559 -66.611581 
L 368.324571 -66.611581 
L 369.793553 -66.611581 
L 371.262534 -66.611581 
L 372.731515 -66.611581 
L 374.200496 -66.611581 
L 375.669477 -66.611581 
L 377.138459 -66.611581 
L 378.60744 -66.611581 
L 380.076421 -66.611581 
L 381.545402 -66.611581 
L 383.014383 -66.611581 
L 384.483365 -66.611581 
L 385.952346 -66.611581 
L 387.421327 -66.611581 
L 388.890308 -66.611581 
L 390.35929 -66.611581 
L 391.828271 -66.611581 
L 393.297252 -66.611581 
L 394.766233 -66.611581 
L 396.235214 -66.611581 
L 397.704196 -66.611581 
L 399.173177 -66.611581 
L 400.642158 -66.611581 
L 402.111139 -66.611581 
L 403.580121 -66.611581 
L 405.049102 -66.611581 
L 406.518083 -66.611581 
L 407.987064 -66.611581 
L 409.456045 -66.611581 
L 410.925027 -66.611581 
L 412.394008 -66.611581 
L 413.862989 -66.611581 
L 415.33197 -66.611581 
L 416.800952 -66.611581 
L 418.269933 -66.611581 
L 419.738914 -66.611581 
L 421.207895 -66.611581 
L 422.676876 -66.611581 
L 424.145858 -66.611581 
L 425.614839 -66.611581 
L 427.08382 -66.611581 
L 428.552801 -66.611581 
L 430.021783 -66.611581 
L 431.490764 -66.611581 
L 432.959745 -66.611581 
L 434.428726 -66.611581 
L 435.897707 -66.611581 
L 437.366689 -66.611581 
L 438.83567 -66.611581 
L 440.304651 -66.611581 
L 441.773632 -66.611581 
L 443.242614 -66.611581 
L 444.711595 -66.611581 
L 446.180576 -66.611581 
L 447.649557 -66.611581 
L 449.118538 -66.611581 
L 450.58752 -66.611581 
L 452.056501 -66.611581 
L 453.525482 -66.611581 
L 454.994463 -66.611581 
L 456.463445 -66.611581 
L 457.932426 -66.611581 
L 459.401407 -66.611581 
L 460.870388 -66.611581 
L 462.339369 -66.611581 
L 463.808351 -66.611581 
L 465.277332 -66.611581 
L 466.746313 -66.611581 
L 468.215294 -66.611581 
L 469.684276 -66.611581 
L 471.153257 -66.611581 
L 472.622238 -66.611581 
L 474.091219 -66.611581 
L 475.5602 -66.611581 
L 477.029182 -66.611581 
L 478.498163 -66.611581 
L 479.967144 -66.611581 
L 481.436125 -66.611581 
L 482.905107 -66.611581 
L 484.374088 -66.611581 
L 485.843069 -66.611581 
L 487.31205 -66.611581 
L 488.781031 -66.611581 
L 490.250013 -66.611581 
L 491.718994 -66.611581 
L 493.187975 -66.611581 
L 494.656956 -66.611581 
L 496.125938 -66.611581 
L 497.594919 -66.611581 
L 499.0639 -66.611581 
L 499.0639 -66.719083 
L 499.0639 -66.719083 
L 497.594919 -66.89837 
L 496.125938 -67.311405 
L 494.656956 -68.175745 
L 493.187975 -69.818903 
L 491.718994 -72.656831 
L 490.250013 -77.109944 
L 488.781031 -83.458193 
L 487.31205 -91.67915 
L 485.843069 -101.347702 
L 484.374088 -111.66988 
L 482.905107 -121.66539 
L 481.436125 -130.433366 
L 479.967144 -137.388274 
L 478.498163 -142.37233 
L 477.029182 -145.62092 
L 475.5602 -147.626014 
L 474.091219 -148.968138 
L 472.622238 -150.170505 
L 471.153257 -151.599273 
L 469.684276 -153.415759 
L 468.215294 -155.580264 
L 466.746313 -157.901102 
L 465.277332 -160.111249 
L 463.808351 -161.946369 
L 462.339369 -163.201409 
L 460.870388 -163.758443 
L 459.401407 -163.593731 
L 457.932426 -162.774378 
L 456.463445 -161.445189 
L 454.994463 -159.799124 
L 453.525482 -158.031919 
L 452.056501 -156.297001 
L 450.58752 -154.683071 
L 449.118538 -153.224326 
L 447.649557 -151.931847 
L 446.180576 -150.822042 
L 444.711595 -149.92341 
L 443.242614 -149.260618 
L 441.773632 -148.830957 
L 440.304651 -148.591974 
L 438.83567 -148.469898 
L 437.366689 -148.384959 
L 435.897707 -148.281249 
L 434.428726 -148.148493 
L 432.959745 -148.028571 
L 431.490764 -148.00653 
L 430.021783 -148.19095 
L 428.552801 -148.689469 
L 427.08382 -149.582773 
L 425.614839 -150.898809 
L 424.145858 -152.591878 
L 422.676876 -154.53495 
L 421.207895 -156.532002 
L 419.738914 -158.350157 
L 418.269933 -159.765174 
L 416.800952 -160.611067 
L 415.33197 -160.822062 
L 413.862989 -160.451553 
L 412.394008 -159.655022 
L 410.925027 -158.637915 
L 409.456045 -157.58914 
L 407.987064 -156.631019 
L 406.518083 -155.807859 
L 405.049102 -155.113296 
L 403.580121 -154.536789 
L 402.111139 -154.103584 
L 400.642158 -153.889765 
L 399.173177 -154.005418 
L 397.704196 -154.548028 
L 396.235214 -155.536689 
L 394.766233 -156.848853 
L 393.297252 -158.191266 
L 391.828271 -159.13483 
L 390.35929 -159.22241 
L 388.890308 -158.123991 
L 387.421327 -155.781404 
L 385.952346 -152.475413 
L 384.483365 -148.772932 
L 383.014383 -145.363809 
L 381.545402 -142.848376 
L 380.076421 -141.560174 
L 378.60744 -141.491623 
L 377.138459 -142.344412 
L 375.669477 -143.67353 
L 374.200496 -145.057243 
L 372.731515 -146.220847 
L 371.262534 -147.071064 
L 369.793553 -147.644005 
L 368.324571 -148.007444 
L 366.85559 -148.170963 
L 365.386609 -148.045177 
L 363.917628 -147.464817 
L 362.448646 -146.262265 
L 360.979665 -144.357808 
L 359.510684 -141.826737 
L 358.041703 -138.913358 
L 356.572722 -135.98411 
L 355.10374 -133.438416 
L 353.634759 -131.615511 
L 352.165778 -130.737877 
L 350.696797 -130.912611 
L 349.227815 -132.178638 
L 347.758834 -134.55781 
L 346.289853 -138.061084 
L 344.820872 -142.627139 
L 343.351891 -148.021658 
L 341.882909 -153.770374 
L 340.413928 -159.199184 
L 338.944947 -163.596144 
L 337.475966 -166.427349 
L 336.006984 -167.494887 
L 334.538003 -166.957076 
L 333.069022 -165.214211 
L 331.600041 -162.733608 
L 330.13106 -159.901322 
L 328.662078 -156.950615 
L 327.193097 -153.967753 
L 325.724116 -150.946309 
L 324.255135 -147.856633 
L 322.786153 -144.704137 
L 321.317172 -141.557553 
L 319.848191 -138.537624 
L 318.37921 -135.771928 
L 316.910229 -133.338284 
L 315.441247 -131.225092 
L 313.972266 -129.326515 
L 312.503285 -127.471347 
L 311.034304 -125.470601 
L 309.565322 -123.166918 
L 308.096341 -120.474788 
L 306.62736 -117.406399 
L 305.158379 -114.078855 
L 303.689398 -110.696727 
L 302.220416 -107.506015 
L 300.751435 -104.726448 
L 299.282454 -102.483845 
L 297.813473 -100.770988 
L 296.344491 -99.455641 
L 294.87551 -98.332286 
L 293.406529 -97.194009 
L 291.937548 -95.894505 
L 290.468567 -94.379133 
L 288.999585 -92.680613 
L 287.530604 -90.889404 
L 286.061623 -89.114582 
L 284.592642 -87.4487 
L 283.12366 -85.944295 
L 281.654679 -84.605001 
L 280.185698 -83.39154 
L 278.716717 -82.240706 
L 277.247736 -81.092326 
L 275.778754 -79.915799 
L 274.309773 -78.726134 
L 272.840792 -77.58213 
L 271.371811 -76.566447 
L 269.902829 -75.75572 
L 268.433848 -75.193353 
L 266.964867 -74.875602 
L 265.495886 -74.754801 
L 264.026905 -74.756342 
L 262.557923 -74.801606 
L 261.088942 -74.828145 
L 259.619961 -74.80087 
L 258.15098 -74.712461 
L 256.681998 -74.575758 
L 255.213017 -74.413265 
L 253.744036 -74.248135 
L 252.275055 -74.098442 
L 250.806074 -73.974401 
L 249.337092 -73.877798 
L 247.868111 -73.80361 
L 246.39913 -73.743784 
L 244.930149 -73.691868 
L 243.461167 -73.645928 
L 241.992186 -73.607885 
L 240.523205 -73.580103 
L 239.054224 -73.562377 
L 237.585243 -73.552072 
L 236.116261 -73.547139 
L 234.64728 -73.548682 
L 233.178299 -73.559214 
L 231.709318 -73.575481 
L 230.240336 -73.578913 
L 228.771355 -73.529827 
L 227.302374 -73.371261 
L 225.833393 -73.044325 
L 224.364412 -72.510837 
L 222.89543 -71.773698 
L 221.426449 -70.884562 
L 219.957468 -69.933215 
L 218.488487 -69.022024 
L 217.019505 -68.236592 
L 215.550524 -67.625305 
L 214.081543 -67.194891 
L 212.612562 -66.920375 
L 211.143581 -66.761657 
L 209.674599 -66.678426 
L 208.205618 -66.638829 
L 206.736637 -66.621734 
z
"/>
    </defs>
    <g clip-path="url(#pdd473ab482)">
     <use xlink:href="#m3832489fef" x="0" y="216" style="fill: #8da0cb; fill-opacity: 0.5"/>
    </g>
   </g>
   <g id="PolyCollection_2">
    <defs>
     <path id="m42f46cc98b" d="M 90.288902 -66.626165 
L 90.288902 -66.611581 
L 91.721938 -66.611581 
L 93.154974 -66.611581 
L 94.588011 -66.611581 
L 96.021047 -66.611581 
L 97.454083 -66.611581 
L 98.887119 -66.611581 
L 100.320156 -66.611581 
L 101.753192 -66.611581 
L 103.186228 -66.611581 
L 104.619265 -66.611581 
L 106.052301 -66.611581 
L 107.485337 -66.611581 
L 108.918373 -66.611581 
L 110.35141 -66.611581 
L 111.784446 -66.611581 
L 113.217482 -66.611581 
L 114.650518 -66.611581 
L 116.083555 -66.611581 
L 117.516591 -66.611581 
L 118.949627 -66.611581 
L 120.382664 -66.611581 
L 121.8157 -66.611581 
L 123.248736 -66.611581 
L 124.681772 -66.611581 
L 126.114809 -66.611581 
L 127.547845 -66.611581 
L 128.980881 -66.611581 
L 130.413917 -66.611581 
L 131.846954 -66.611581 
L 133.27999 -66.611581 
L 134.713026 -66.611581 
L 136.146063 -66.611581 
L 137.579099 -66.611581 
L 139.012135 -66.611581 
L 140.445171 -66.611581 
L 141.878208 -66.611581 
L 143.311244 -66.611581 
L 144.74428 -66.611581 
L 146.177316 -66.611581 
L 147.610353 -66.611581 
L 149.043389 -66.611581 
L 150.476425 -66.611581 
L 151.909462 -66.611581 
L 153.342498 -66.611581 
L 154.775534 -66.611581 
L 156.20857 -66.611581 
L 157.641607 -66.611581 
L 159.074643 -66.611581 
L 160.507679 -66.611581 
L 161.940715 -66.611581 
L 163.373752 -66.611581 
L 164.806788 -66.611581 
L 166.239824 -66.611581 
L 167.672861 -66.611581 
L 169.105897 -66.611581 
L 170.538933 -66.611581 
L 171.971969 -66.611581 
L 173.405006 -66.611581 
L 174.838042 -66.611581 
L 176.271078 -66.611581 
L 177.704114 -66.611581 
L 179.137151 -66.611581 
L 180.570187 -66.611581 
L 182.003223 -66.611581 
L 183.43626 -66.611581 
L 184.869296 -66.611581 
L 186.302332 -66.611581 
L 187.735368 -66.611581 
L 189.168405 -66.611581 
L 190.601441 -66.611581 
L 192.034477 -66.611581 
L 193.467513 -66.611581 
L 194.90055 -66.611581 
L 196.333586 -66.611581 
L 197.766622 -66.611581 
L 199.199659 -66.611581 
L 200.632695 -66.611581 
L 202.065731 -66.611581 
L 203.498767 -66.611581 
L 204.931804 -66.611581 
L 206.36484 -66.611581 
L 207.797876 -66.611581 
L 209.230912 -66.611581 
L 210.663949 -66.611581 
L 212.096985 -66.611581 
L 213.530021 -66.611581 
L 214.963058 -66.611581 
L 216.396094 -66.611581 
L 217.82913 -66.611581 
L 219.262166 -66.611581 
L 220.695203 -66.611581 
L 222.128239 -66.611581 
L 223.561275 -66.611581 
L 224.994311 -66.611581 
L 226.427348 -66.611581 
L 227.860384 -66.611581 
L 229.29342 -66.611581 
L 230.726457 -66.611581 
L 232.159493 -66.611581 
L 233.592529 -66.611581 
L 235.025565 -66.611581 
L 236.458602 -66.611581 
L 237.891638 -66.611581 
L 239.324674 -66.611581 
L 240.75771 -66.611581 
L 242.190747 -66.611581 
L 243.623783 -66.611581 
L 245.056819 -66.611581 
L 246.489856 -66.611581 
L 247.922892 -66.611581 
L 249.355928 -66.611581 
L 250.788964 -66.611581 
L 252.222001 -66.611581 
L 253.655037 -66.611581 
L 255.088073 -66.611581 
L 256.521109 -66.611581 
L 257.954146 -66.611581 
L 259.387182 -66.611581 
L 260.820218 -66.611581 
L 262.253254 -66.611581 
L 263.686291 -66.611581 
L 265.119327 -66.611581 
L 266.552363 -66.611581 
L 267.9854 -66.611581 
L 269.418436 -66.611581 
L 270.851472 -66.611581 
L 272.284508 -66.611581 
L 273.717545 -66.611581 
L 275.150581 -66.611581 
L 276.583617 -66.611581 
L 278.016653 -66.611581 
L 279.44969 -66.611581 
L 280.882726 -66.611581 
L 282.315762 -66.611581 
L 283.748799 -66.611581 
L 285.181835 -66.611581 
L 286.614871 -66.611581 
L 288.047907 -66.611581 
L 289.480944 -66.611581 
L 290.91398 -66.611581 
L 292.347016 -66.611581 
L 293.780052 -66.611581 
L 295.213089 -66.611581 
L 296.646125 -66.611581 
L 298.079161 -66.611581 
L 299.512198 -66.611581 
L 300.945234 -66.611581 
L 302.37827 -66.611581 
L 303.811306 -66.611581 
L 305.244343 -66.611581 
L 306.677379 -66.611581 
L 308.110415 -66.611581 
L 309.543451 -66.611581 
L 310.976488 -66.611581 
L 312.409524 -66.611581 
L 313.84256 -66.611581 
L 315.275597 -66.611581 
L 316.708633 -66.611581 
L 318.141669 -66.611581 
L 319.574705 -66.611581 
L 321.007742 -66.611581 
L 322.440778 -66.611581 
L 323.873814 -66.611581 
L 325.30685 -66.611581 
L 326.739887 -66.611581 
L 328.172923 -66.611581 
L 329.605959 -66.611581 
L 331.038996 -66.611581 
L 332.472032 -66.611581 
L 333.905068 -66.611581 
L 335.338104 -66.611581 
L 336.771141 -66.611581 
L 338.204177 -66.611581 
L 339.637213 -66.611581 
L 341.070249 -66.611581 
L 342.503286 -66.611581 
L 343.936322 -66.611581 
L 345.369358 -66.611581 
L 346.802395 -66.611581 
L 348.235431 -66.611581 
L 349.668467 -66.611581 
L 351.101503 -66.611581 
L 352.53454 -66.611581 
L 353.967576 -66.611581 
L 355.400612 -66.611581 
L 356.833648 -66.611581 
L 358.266685 -66.611581 
L 359.699721 -66.611581 
L 361.132757 -66.611581 
L 362.565794 -66.611581 
L 363.99883 -66.611581 
L 365.431866 -66.611581 
L 366.864902 -66.611581 
L 368.297939 -66.611581 
L 369.730975 -66.611581 
L 371.164011 -66.611581 
L 372.597047 -66.611581 
L 374.030084 -66.611581 
L 375.46312 -66.611581 
L 375.46312 -66.611794 
L 375.46312 -66.611794 
L 374.030084 -66.612204 
L 372.597047 -66.613217 
L 371.164011 -66.615442 
L 369.730975 -66.619779 
L 368.297939 -66.627246 
L 366.864902 -66.638554 
L 365.431866 -66.65351 
L 363.99883 -66.670597 
L 362.565794 -66.687158 
L 361.132757 -66.700333 
L 359.699721 -66.708374 
L 358.266685 -66.711558 
L 356.833648 -66.712088 
L 355.400612 -66.71313 
L 353.967576 -66.717723 
L 352.53454 -66.728437 
L 351.101503 -66.748011 
L 349.668467 -66.78045 
L 348.235431 -66.8315 
L 346.802395 -66.907337 
L 345.369358 -67.010962 
L 343.936322 -67.137386 
L 342.503286 -67.27067 
L 341.070249 -67.386299 
L 339.637213 -67.459696 
L 338.204177 -67.476962 
L 336.771141 -67.441247 
L 335.338104 -67.370507 
L 333.905068 -67.288321 
L 332.472032 -67.213842 
L 331.038996 -67.156455 
L 329.605959 -67.116663 
L 328.172923 -67.090839 
L 326.739887 -67.076427 
L 325.30685 -67.075327 
L 323.873814 -67.094939 
L 322.440778 -67.147162 
L 321.007742 -67.245559 
L 319.574705 -67.400821 
L 318.141669 -67.615387 
L 316.708633 -67.879469 
L 315.275597 -68.171227 
L 313.84256 -68.462349 
L 312.409524 -68.727367 
L 310.976488 -68.952917 
L 309.543451 -69.143582 
L 308.110415 -69.323651 
L 306.677379 -69.536339 
L 305.244343 -69.841254 
L 303.811306 -70.307664 
L 302.37827 -70.999401 
L 300.945234 -71.951226 
L 299.512198 -73.145233 
L 298.079161 -74.502261 
L 296.646125 -75.900252 
L 295.213089 -77.218381 
L 293.780052 -78.39024 
L 292.347016 -79.440465 
L 290.91398 -80.483086 
L 289.480944 -81.676816 
L 288.047907 -83.156019 
L 286.614871 -84.97257 
L 285.181835 -87.079682 
L 283.748799 -89.362658 
L 282.315762 -91.690367 
L 280.882726 -93.949079 
L 279.44969 -96.038962 
L 278.016653 -97.849298 
L 276.583617 -99.250541 
L 275.150581 -100.127605 
L 273.717545 -100.439519 
L 272.284508 -100.261966 
L 270.851472 -99.777855 
L 269.418436 -99.217862 
L 267.9854 -98.785061 
L 266.552363 -98.602991 
L 265.119327 -98.707693 
L 263.686291 -99.077286 
L 262.253254 -99.672971 
L 260.820218 -100.463533 
L 259.387182 -101.422668 
L 257.954146 -102.511309 
L 256.521109 -103.666472 
L 255.088073 -104.808757 
L 253.655037 -105.864417 
L 252.222001 -106.787827 
L 250.788964 -107.569291 
L 249.355928 -108.220523 
L 247.922892 -108.745223 
L 246.489856 -109.116116 
L 245.056819 -109.278127 
L 243.623783 -109.178278 
L 242.190747 -108.804626 
L 240.75771 -108.214766 
L 239.324674 -107.543935 
L 237.891638 -106.989901 
L 236.458602 -106.775631 
L 235.025565 -107.097493 
L 233.592529 -108.073509 
L 232.159493 -109.704867 
L 230.726457 -111.857231 
L 229.29342 -114.267133 
L 227.860384 -116.583178 
L 226.427348 -118.448624 
L 224.994311 -119.611954 
L 223.561275 -120.025103 
L 222.128239 -119.878169 
L 220.695203 -119.542095 
L 219.262166 -119.439295 
L 217.82913 -119.902244 
L 216.396094 -121.078919 
L 214.963058 -122.905473 
L 213.530021 -125.130695 
L 212.096985 -127.373735 
L 210.663949 -129.211592 
L 209.230912 -130.290958 
L 207.797876 -130.434739 
L 206.36484 -129.697532 
L 204.931804 -128.340509 
L 203.498767 -126.734941 
L 202.065731 -125.237871 
L 200.632695 -124.093786 
L 199.199659 -123.396515 
L 197.766622 -123.106221 
L 196.333586 -123.086158 
L 194.90055 -123.129731 
L 193.467513 -122.981206 
L 192.034477 -122.374227 
L 190.601441 -121.09842 
L 189.168405 -119.074605 
L 187.735368 -116.402891 
L 186.302332 -113.353233 
L 184.869296 -110.288656 
L 183.43626 -107.543056 
L 182.003223 -105.306088 
L 180.570187 -103.570875 
L 179.137151 -102.164385 
L 177.704114 -100.832446 
L 176.271078 -99.331105 
L 174.838042 -97.490725 
L 173.405006 -95.244219 
L 171.971969 -92.625658 
L 170.538933 -89.750122 
L 169.105897 -86.784953 
L 167.672861 -83.917006 
L 166.239824 -81.314959 
L 164.806788 -79.089607 
L 163.373752 -77.266256 
L 161.940715 -75.787067 
L 160.507679 -74.548329 
L 159.074643 -73.457117 
L 157.641607 -72.479425 
L 156.20857 -71.655249 
L 154.775534 -71.072517 
L 153.342498 -70.813368 
L 151.909462 -70.902046 
L 150.476425 -71.283007 
L 149.043389 -71.839377 
L 147.610353 -72.438164 
L 146.177316 -72.97592 
L 144.74428 -73.403508 
L 143.311244 -73.723875 
L 141.878208 -73.970824 
L 140.445171 -74.182914 
L 139.012135 -74.384918 
L 137.579099 -74.583478 
L 136.146063 -74.77671 
L 134.713026 -74.970954 
L 133.27999 -75.192969 
L 131.846954 -75.486536 
L 130.413917 -75.891713 
L 128.980881 -76.41857 
L 127.547845 -77.033874 
L 126.114809 -77.671269 
L 124.681772 -78.258639 
L 123.248736 -78.744694 
L 121.8157 -79.109453 
L 120.382664 -79.356564 
L 118.949627 -79.497913 
L 117.516591 -79.543374 
L 116.083555 -79.500116 
L 114.650518 -79.375144 
L 113.217482 -79.171738 
L 111.784446 -78.877832 
L 110.35141 -78.454759 
L 108.918373 -77.838588 
L 107.485337 -76.960872 
L 106.052301 -75.784337 
L 104.619265 -74.337579 
L 103.186228 -72.727761 
L 101.753192 -71.118123 
L 100.320156 -69.676973 
L 98.887119 -68.523734 
L 97.454083 -67.699678 
L 96.021047 -67.174101 
L 94.588011 -66.874942 
L 93.154974 -66.722969 
L 91.721938 -66.654059 
L 90.288902 -66.626165 
z
"/>
    </defs>
    <g clip-path="url(#pdd473ab482)">
     <use xlink:href="#m42f46cc98b" x="0" y="216" style="fill: #fc8d62; fill-opacity: 0.5"/>
    </g>
   </g>
   <g id="PolyCollection_3">
    <defs>
     <path id="m415b20b1c7" d="M 69.175445 -66.735559 
L 69.175445 -66.611581 
L 70.098722 -66.611581 
L 71.021999 -66.611581 
L 71.945276 -66.611581 
L 72.868553 -66.611581 
L 73.79183 -66.611581 
L 74.715107 -66.611581 
L 75.638384 -66.611581 
L 76.561661 -66.611581 
L 77.484938 -66.611581 
L 78.408215 -66.611581 
L 79.331492 -66.611581 
L 80.25477 -66.611581 
L 81.178047 -66.611581 
L 82.101324 -66.611581 
L 83.024601 -66.611581 
L 83.947878 -66.611581 
L 84.871155 -66.611581 
L 85.794432 -66.611581 
L 86.717709 -66.611581 
L 87.640986 -66.611581 
L 88.564263 -66.611581 
L 89.48754 -66.611581 
L 90.410817 -66.611581 
L 91.334094 -66.611581 
L 92.257371 -66.611581 
L 93.180648 -66.611581 
L 94.103925 -66.611581 
L 95.027202 -66.611581 
L 95.950479 -66.611581 
L 96.873756 -66.611581 
L 97.797034 -66.611581 
L 98.720311 -66.611581 
L 99.643588 -66.611581 
L 100.566865 -66.611581 
L 101.490142 -66.611581 
L 102.413419 -66.611581 
L 103.336696 -66.611581 
L 104.259973 -66.611581 
L 105.18325 -66.611581 
L 106.106527 -66.611581 
L 107.029804 -66.611581 
L 107.953081 -66.611581 
L 108.876358 -66.611581 
L 109.799635 -66.611581 
L 110.722912 -66.611581 
L 111.646189 -66.611581 
L 112.569466 -66.611581 
L 113.492743 -66.611581 
L 114.416021 -66.611581 
L 115.339298 -66.611581 
L 116.262575 -66.611581 
L 117.185852 -66.611581 
L 118.109129 -66.611581 
L 119.032406 -66.611581 
L 119.955683 -66.611581 
L 120.87896 -66.611581 
L 121.802237 -66.611581 
L 122.725514 -66.611581 
L 123.648791 -66.611581 
L 124.572068 -66.611581 
L 125.495345 -66.611581 
L 126.418622 -66.611581 
L 127.341899 -66.611581 
L 128.265176 -66.611581 
L 129.188453 -66.611581 
L 130.11173 -66.611581 
L 131.035007 -66.611581 
L 131.958285 -66.611581 
L 132.881562 -66.611581 
L 133.804839 -66.611581 
L 134.728116 -66.611581 
L 135.651393 -66.611581 
L 136.57467 -66.611581 
L 137.497947 -66.611581 
L 138.421224 -66.611581 
L 139.344501 -66.611581 
L 140.267778 -66.611581 
L 141.191055 -66.611581 
L 142.114332 -66.611581 
L 143.037609 -66.611581 
L 143.960886 -66.611581 
L 144.884163 -66.611581 
L 145.80744 -66.611581 
L 146.730717 -66.611581 
L 147.653994 -66.611581 
L 148.577272 -66.611581 
L 149.500549 -66.611581 
L 150.423826 -66.611581 
L 151.347103 -66.611581 
L 152.27038 -66.611581 
L 153.193657 -66.611581 
L 154.116934 -66.611581 
L 155.040211 -66.611581 
L 155.963488 -66.611581 
L 156.886765 -66.611581 
L 157.810042 -66.611581 
L 158.733319 -66.611581 
L 159.656596 -66.611581 
L 160.579873 -66.611581 
L 161.50315 -66.611581 
L 162.426427 -66.611581 
L 163.349704 -66.611581 
L 164.272981 -66.611581 
L 165.196258 -66.611581 
L 166.119536 -66.611581 
L 167.042813 -66.611581 
L 167.96609 -66.611581 
L 168.889367 -66.611581 
L 169.812644 -66.611581 
L 170.735921 -66.611581 
L 171.659198 -66.611581 
L 172.582475 -66.611581 
L 173.505752 -66.611581 
L 174.429029 -66.611581 
L 175.352306 -66.611581 
L 176.275583 -66.611581 
L 177.19886 -66.611581 
L 178.122137 -66.611581 
L 179.045414 -66.611581 
L 179.968691 -66.611581 
L 180.891968 -66.611581 
L 181.815245 -66.611581 
L 182.738523 -66.611581 
L 183.6618 -66.611581 
L 184.585077 -66.611581 
L 185.508354 -66.611581 
L 186.431631 -66.611581 
L 187.354908 -66.611581 
L 188.278185 -66.611581 
L 189.201462 -66.611581 
L 190.124739 -66.611581 
L 191.048016 -66.611581 
L 191.971293 -66.611581 
L 192.89457 -66.611581 
L 193.817847 -66.611581 
L 194.741124 -66.611581 
L 195.664401 -66.611581 
L 196.587678 -66.611581 
L 197.510955 -66.611581 
L 198.434232 -66.611581 
L 199.357509 -66.611581 
L 200.280787 -66.611581 
L 201.204064 -66.611581 
L 202.127341 -66.611581 
L 203.050618 -66.611581 
L 203.973895 -66.611581 
L 204.897172 -66.611581 
L 205.820449 -66.611581 
L 206.743726 -66.611581 
L 207.667003 -66.611581 
L 208.59028 -66.611581 
L 209.513557 -66.611581 
L 210.436834 -66.611581 
L 211.360111 -66.611581 
L 212.283388 -66.611581 
L 213.206665 -66.611581 
L 214.129942 -66.611581 
L 215.053219 -66.611581 
L 215.976496 -66.611581 
L 216.899774 -66.611581 
L 217.823051 -66.611581 
L 218.746328 -66.611581 
L 219.669605 -66.611581 
L 220.592882 -66.611581 
L 221.516159 -66.611581 
L 222.439436 -66.611581 
L 223.362713 -66.611581 
L 224.28599 -66.611581 
L 225.209267 -66.611581 
L 226.132544 -66.611581 
L 227.055821 -66.611581 
L 227.979098 -66.611581 
L 228.902375 -66.611581 
L 229.825652 -66.611581 
L 230.748929 -66.611581 
L 231.672206 -66.611581 
L 232.595483 -66.611581 
L 233.51876 -66.611581 
L 234.442038 -66.611581 
L 235.365315 -66.611581 
L 236.288592 -66.611581 
L 237.211869 -66.611581 
L 238.135146 -66.611581 
L 239.058423 -66.611581 
L 239.9817 -66.611581 
L 240.904977 -66.611581 
L 241.828254 -66.611581 
L 242.751531 -66.611581 
L 243.674808 -66.611581 
L 244.598085 -66.611581 
L 245.521362 -66.611581 
L 246.444639 -66.611581 
L 247.367916 -66.611581 
L 248.291193 -66.611581 
L 249.21447 -66.611581 
L 250.137747 -66.611581 
L 251.061024 -66.611581 
L 251.984302 -66.611581 
L 252.907579 -66.611581 
L 252.907579 -66.611969 
L 252.907579 -66.611969 
L 251.984302 -66.61268 
L 251.061024 -66.614338 
L 250.137747 -66.61772 
L 249.21447 -66.623736 
L 248.291193 -66.633051 
L 247.367916 -66.64557 
L 246.444639 -66.660171 
L 245.521362 -66.675051 
L 244.598085 -66.688685 
L 243.674808 -66.700759 
L 242.751531 -66.712245 
L 241.828254 -66.724375 
L 240.904977 -66.73733 
L 239.9817 -66.74989 
L 239.058423 -66.760535 
L 238.135146 -66.769019 
L 237.211869 -66.776814 
L 236.288592 -66.785778 
L 235.365315 -66.796187 
L 234.442038 -66.806015 
L 233.51876 -66.812295 
L 232.595483 -66.81344 
L 231.672206 -66.810527 
L 230.748929 -66.806474 
L 229.825652 -66.804051 
L 228.902375 -66.804563 
L 227.979098 -66.808116 
L 227.055821 -66.814565 
L 226.132544 -66.82369 
L 225.209267 -66.834432 
L 224.28599 -66.844445 
L 223.362713 -66.851049 
L 222.439436 -66.853023 
L 221.516159 -66.851636 
L 220.592882 -66.849923 
L 219.669605 -66.850668 
L 218.746328 -66.854477 
L 217.823051 -66.859162 
L 216.899774 -66.860876 
L 215.976496 -66.856415 
L 215.053219 -66.845343 
L 214.129942 -66.830469 
L 213.206665 -66.816123 
L 212.283388 -66.805252 
L 211.360111 -66.797378 
L 210.436834 -66.78904 
L 209.513557 -66.776419 
L 208.59028 -66.758193 
L 207.667003 -66.736539 
L 206.743726 -66.715906 
L 205.820449 -66.701051 
L 204.897172 -66.696281 
L 203.973895 -66.706649 
L 203.050618 -66.740067 
L 202.127341 -66.808143 
L 201.204064 -66.923818 
L 200.280787 -67.095718 
L 199.357509 -67.321829 
L 198.434232 -67.586797 
L 197.510955 -67.865777 
L 196.587678 -68.133366 
L 195.664401 -68.372068 
L 194.741124 -68.575049 
L 193.817847 -68.74275 
L 192.89457 -68.877697 
L 191.971293 -68.982011 
L 191.048016 -69.058242 
L 190.124739 -69.110935 
L 189.201462 -69.147205 
L 188.278185 -69.17793 
L 187.354908 -69.222968 
L 186.431631 -69.321262 
L 185.508354 -69.540771 
L 184.585077 -69.977492 
L 183.6618 -70.733168 
L 182.738523 -71.872274 
L 181.815245 -73.377654 
L 180.891968 -75.13561 
L 179.968691 -76.968005 
L 179.045414 -78.694421 
L 178.122137 -80.182327 
L 177.19886 -81.356548 
L 176.275583 -82.180509 
L 175.352306 -82.646869 
L 174.429029 -82.796514 
L 173.505752 -82.743949 
L 172.582475 -82.669615 
L 171.659198 -82.765361 
L 170.735921 -83.162747 
L 169.812644 -83.892678 
L 168.889367 -84.901458 
L 167.96609 -86.10447 
L 167.042813 -87.433624 
L 166.119536 -88.848294 
L 165.196258 -90.315351 
L 164.272981 -91.787845 
L 163.349704 -93.205369 
L 162.426427 -94.512785 
L 161.50315 -95.674158 
L 160.579873 -96.663571 
L 159.656596 -97.441561 
L 158.733319 -97.950007 
L 157.810042 -98.149757 
L 156.886765 -98.081751 
L 155.963488 -97.893776 
L 155.040211 -97.789075 
L 154.116934 -97.919027 
L 153.193657 -98.299974 
L 152.27038 -98.822137 
L 151.347103 -99.340963 
L 150.423826 -99.769393 
L 149.500549 -100.092854 
L 148.577272 -100.305656 
L 147.653994 -100.345543 
L 146.730717 -100.106832 
L 145.80744 -99.535675 
L 144.884163 -98.724645 
L 143.960886 -97.911511 
L 143.037609 -97.364291 
L 142.114332 -97.234465 
L 141.191055 -97.493836 
L 140.267778 -98.007324 
L 139.344501 -98.686387 
L 138.421224 -99.603528 
L 137.497947 -100.976916 
L 136.57467 -103.03139 
L 135.651393 -105.835389 
L 134.728116 -109.235216 
L 133.804839 -112.938925 
L 132.881562 -116.685104 
L 131.958285 -120.355186 
L 131.035007 -123.926159 
L 130.11173 -127.301597 
L 129.188453 -130.186775 
L 128.265176 -132.157184 
L 127.341899 -132.898928 
L 126.418622 -132.42554 
L 125.495345 -131.078782 
L 124.572068 -129.314766 
L 123.648791 -127.472468 
L 122.725514 -125.720881 
L 121.802237 -124.192367 
L 120.87896 -123.133431 
L 119.955683 -122.906908 
L 119.032406 -123.832435 
L 118.109129 -125.994545 
L 117.185852 -129.164383 
L 116.262575 -132.886378 
L 115.339298 -136.665904 
L 114.416021 -140.136194 
L 113.492743 -143.111478 
L 112.569466 -145.526734 
L 111.646189 -147.35415 
L 110.722912 -148.593276 
L 109.799635 -149.342024 
L 108.876358 -149.854963 
L 107.953081 -150.490933 
L 107.029804 -151.554382 
L 106.106527 -153.143189 
L 105.18325 -155.12441 
L 104.259973 -157.260201 
L 103.336696 -159.385396 
L 102.413419 -161.495066 
L 101.490142 -163.673719 
L 100.566865 -165.936079 
L 99.643588 -168.137029 
L 98.720311 -170.053655 
L 97.797034 -171.576028 
L 96.873756 -172.819095 
L 95.950479 -174.022911 
L 95.027202 -175.310408 
L 94.103925 -176.528304 
L 93.180648 -177.341605 
L 92.257371 -177.523666 
L 91.334094 -177.195624 
L 90.410817 -176.800012 
L 89.48754 -176.815736 
L 88.564263 -177.436841 
L 87.640986 -178.461586 
L 86.717709 -179.456505 
L 85.794432 -180.030797 
L 84.871155 -179.977427 
L 83.947878 -179.17596 
L 83.024601 -177.377218 
L 82.101324 -174.090257 
L 81.178047 -168.687598 
L 80.25477 -160.662842 
L 79.331492 -149.892323 
L 78.408215 -136.795242 
L 77.484938 -122.345634 
L 76.561661 -107.905925 
L 75.638384 -94.888622 
L 74.715107 -84.354564 
L 73.79183 -76.73801 
L 72.868553 -71.836242 
L 71.945276 -69.036409 
L 71.021999 -67.619945 
L 70.098722 -66.986143 
L 69.175445 -66.735559 
z
"/>
    </defs>
    <g clip-path="url(#pdd473ab482)">
     <use xlink:href="#m415b20b1c7" x="0" y="216" style="fill: #66c2a5; fill-opacity: 0.5"/>
    </g>
   </g>
   <g id="matplotlib.axis_3">
    <g id="ytick_7">
     <g id="line2d_16">
      <defs>
       <path id="me4325c03d9" d="M 0 0 
L 3.5 0 
" style="stroke: #000000; stroke-width: 0.8"/>
      </defs>
      <g>
       <use xlink:href="#me4325c03d9" x="509.38" y="149.388419" style="stroke: #000000; stroke-width: 0.8"/>
      </g>
     </g>
     <g id="text_17">
      <!-- 0.000 -->
      <g transform="translate(516.38 153.187638) scale(0.1 -0.1)">
       <defs>
        <path id="DejaVuSans-2e" d="M 684 794 
L 1344 794 
L 1344 0 
L 684 0 
L 684 794 
z
" transform="scale(0.015625)"/>
       </defs>
       <use xlink:href="#DejaVuSans-30"/>
       <use xlink:href="#DejaVuSans-2e" x="63.623047"/>
       <use xlink:href="#DejaVuSans-30" x="95.410156"/>
       <use xlink:href="#DejaVuSans-30" x="159.033203"/>
       <use xlink:href="#DejaVuSans-30" x="222.65625"/>
      </g>
     </g>
    </g>
    <g id="ytick_8">
     <g id="line2d_17">
      <g>
       <use xlink:href="#me4325c03d9" x="509.38" y="115.731314" style="stroke: #000000; stroke-width: 0.8"/>
      </g>
     </g>
     <g id="text_18">
      <!-- 0.001 -->
      <g transform="translate(516.38 119.530533) scale(0.1 -0.1)">
       <use xlink:href="#DejaVuSans-30"/>
       <use xlink:href="#DejaVuSans-2e" x="63.623047"/>
       <use xlink:href="#DejaVuSans-30" x="95.410156"/>
       <use xlink:href="#DejaVuSans-30" x="159.033203"/>
       <use xlink:href="#DejaVuSans-31" x="222.65625"/>
      </g>
     </g>
    </g>
    <g id="ytick_9">
     <g id="line2d_18">
      <g>
       <use xlink:href="#me4325c03d9" x="509.38" y="82.074209" style="stroke: #000000; stroke-width: 0.8"/>
      </g>
     </g>
     <g id="text_19">
      <!-- 0.002 -->
      <g transform="translate(516.38 85.873428) scale(0.1 -0.1)">
       <use xlink:href="#DejaVuSans-30"/>
       <use xlink:href="#DejaVuSans-2e" x="63.623047"/>
       <use xlink:href="#DejaVuSans-30" x="95.410156"/>
       <use xlink:href="#DejaVuSans-30" x="159.033203"/>
       <use xlink:href="#DejaVuSans-32" x="222.65625"/>
      </g>
     </g>
    </g>
    <g id="ytick_10">
     <g id="line2d_19">
      <g>
       <use xlink:href="#me4325c03d9" x="509.38" y="48.417105" style="stroke: #000000; stroke-width: 0.8"/>
      </g>
     </g>
     <g id="text_20">
      <!-- 0.003 -->
      <g transform="translate(516.38 52.216323) scale(0.1 -0.1)">
       <use xlink:href="#DejaVuSans-30"/>
       <use xlink:href="#DejaVuSans-2e" x="63.623047"/>
       <use xlink:href="#DejaVuSans-30" x="95.410156"/>
       <use xlink:href="#DejaVuSans-30" x="159.033203"/>
       <use xlink:href="#DejaVuSans-33" x="222.65625"/>
      </g>
     </g>
    </g>
    <g id="ytick_11">
     <g id="line2d_20">
      <g>
       <use xlink:href="#me4325c03d9" x="509.38" y="14.76" style="stroke: #000000; stroke-width: 0.8"/>
      </g>
     </g>
     <g id="text_21">
      <!-- 0.004 -->
      <g transform="translate(516.38 18.559219) scale(0.1 -0.1)">
       <use xlink:href="#DejaVuSans-30"/>
       <use xlink:href="#DejaVuSans-2e" x="63.623047"/>
       <use xlink:href="#DejaVuSans-30" x="95.410156"/>
       <use xlink:href="#DejaVuSans-30" x="159.033203"/>
       <use xlink:href="#DejaVuSans-34" x="222.65625"/>
      </g>
     </g>
    </g>
    <g id="text_22">
     <!-- tweet density -->
     <g transform="translate(556.606562 116.158584) rotate(-90) scale(0.1 -0.1)">
      <defs>
       <path id="DejaVuSans-77" d="M 269 3500 
L 844 3500 
L 1563 769 
L 2278 3500 
L 2956 3500 
L 3675 769 
L 4391 3500 
L 4966 3500 
L 4050 0 
L 3372 0 
L 2619 2869 
L 1863 0 
L 1184 0 
L 269 3500 
z
" transform="scale(0.015625)"/>
       <path id="DejaVuSans-64" d="M 2906 2969 
L 2906 4863 
L 3481 4863 
L 3481 0 
L 2906 0 
L 2906 525 
Q 2725 213 2448 61 
Q 2172 -91 1784 -91 
Q 1150 -91 751 415 
Q 353 922 353 1747 
Q 353 2572 751 3078 
Q 1150 3584 1784 3584 
Q 2172 3584 2448 3432 
Q 2725 3281 2906 2969 
z
M 947 1747 
Q 947 1113 1208 752 
Q 1469 391 1925 391 
Q 2381 391 2643 752 
Q 2906 1113 2906 1747 
Q 2906 2381 2643 2742 
Q 2381 3103 1925 3103 
Q 1469 3103 1208 2742 
Q 947 2381 947 1747 
z
" transform="scale(0.015625)"/>
       <path id="DejaVuSans-73" d="M 2834 3397 
L 2834 2853 
Q 2591 2978 2328 3040 
Q 2066 3103 1784 3103 
Q 1356 3103 1142 2972 
Q 928 2841 928 2578 
Q 928 2378 1081 2264 
Q 1234 2150 1697 2047 
L 1894 2003 
Q 2506 1872 2764 1633 
Q 3022 1394 3022 966 
Q 3022 478 2636 193 
Q 2250 -91 1575 -91 
Q 1294 -91 989 -36 
Q 684 19 347 128 
L 347 722 
Q 666 556 975 473 
Q 1284 391 1588 391 
Q 1994 391 2212 530 
Q 2431 669 2431 922 
Q 2431 1156 2273 1281 
Q 2116 1406 1581 1522 
L 1381 1569 
Q 847 1681 609 1914 
Q 372 2147 372 2553 
Q 372 3047 722 3315 
Q 1072 3584 1716 3584 
Q 2034 3584 2315 3537 
Q 2597 3491 2834 3397 
z
" transform="scale(0.015625)"/>
      </defs>
      <use xlink:href="#DejaVuSans-74"/>
      <use xlink:href="#DejaVuSans-77" x="39.208984"/>
      <use xlink:href="#DejaVuSans-65" x="120.996094"/>
      <use xlink:href="#DejaVuSans-65" x="182.519531"/>
      <use xlink:href="#DejaVuSans-74" x="244.042969"/>
      <use xlink:href="#DejaVuSans-20" x="283.251953"/>
      <use xlink:href="#DejaVuSans-64" x="315.039062"/>
      <use xlink:href="#DejaVuSans-65" x="378.515625"/>
      <use xlink:href="#DejaVuSans-6e" x="440.039062"/>
      <use xlink:href="#DejaVuSans-73" x="503.417969"/>
      <use xlink:href="#DejaVuSans-69" x="555.517578"/>
      <use xlink:href="#DejaVuSans-74" x="583.300781"/>
      <use xlink:href="#DejaVuSans-79" x="622.509766"/>
     </g>
    </g>
   </g>
   <g id="patch_21">
    <path d="M 509.38 149.388419 
L 509.38 14.76 
" style="fill: none; stroke: #000000; stroke-width: 0.8; stroke-linejoin: miter; stroke-linecap: square"/>
   </g>
   <g id="patch_22">
    <path d="M 50.87 149.388419 
L 509.38 149.388419 
" style="fill: none; stroke: #000000; stroke-width: 0.8; stroke-linejoin: miter; stroke-linecap: square"/>
   </g>
  </g>
  <g id="legend_1">
   <g id="patch_23">
    <path d="M 368.275781 142.250625 
L 471.78 142.250625 
Q 473.58 142.250625 473.58 140.450625 
L 473.58 88.509375 
Q 473.58 86.709375 471.78 86.709375 
L 368.275781 86.709375 
Q 366.475781 86.709375 366.475781 88.509375 
L 366.475781 140.450625 
Q 366.475781 142.250625 368.275781 142.250625 
z
" style="fill: #ffffff; opacity: 0.8"/>
   </g>
   <g id="patch_24">
    <path d="M 370.075781 97.147969 
L 388.075781 97.147969 
L 388.075781 90.847969 
L 370.075781 90.847969 
z
" style="fill: #b2b2b2"/>
   </g>
   <g id="text_23">
    <!-- elections -->
    <g transform="translate(395.275781 97.147969) scale(0.09 -0.09)">
     <use xlink:href="#DejaVuSans-65"/>
     <use xlink:href="#DejaVuSans-6c" x="61.523438"/>
     <use xlink:href="#DejaVuSans-65" x="89.306641"/>
     <use xlink:href="#DejaVuSans-63" x="150.830078"/>
     <use xlink:href="#DejaVuSans-74" x="205.810547"/>
     <use xlink:href="#DejaVuSans-69" x="245.019531"/>
     <use xlink:href="#DejaVuSans-6f" x="272.802734"/>
     <use xlink:href="#DejaVuSans-6e" x="333.984375"/>
     <use xlink:href="#DejaVuSans-73" x="397.363281"/>
    </g>
   </g>
   <g id="patch_25">
    <path d="M 370.075781 110.358281 
L 388.075781 110.358281 
L 388.075781 104.058281 
L 370.075781 104.058281 
z
" style="fill: #66c2a5; fill-opacity: 0.5"/>
   </g>
   <g id="text_24">
    <!-- pilot data before -->
    <g transform="translate(395.275781 110.358281) scale(0.09 -0.09)">
     <defs>
      <path id="DejaVuSans-62" d="M 3116 1747 
Q 3116 2381 2855 2742 
Q 2594 3103 2138 3103 
Q 1681 3103 1420 2742 
Q 1159 2381 1159 1747 
Q 1159 1113 1420 752 
Q 1681 391 2138 391 
Q 2594 391 2855 752 
Q 3116 1113 3116 1747 
z
M 1159 2969 
Q 1341 3281 1617 3432 
Q 1894 3584 2278 3584 
Q 2916 3584 3314 3078 
Q 3713 2572 3713 1747 
Q 3713 922 3314 415 
Q 2916 -91 2278 -91 
Q 1894 -91 1617 61 
Q 1341 213 1159 525 
L 1159 0 
L 581 0 
L 581 4863 
L 1159 4863 
L 1159 2969 
z
" transform="scale(0.015625)"/>
      <path id="DejaVuSans-66" d="M 2375 4863 
L 2375 4384 
L 1825 4384 
Q 1516 4384 1395 4259 
Q 1275 4134 1275 3809 
L 1275 3500 
L 2222 3500 
L 2222 3053 
L 1275 3053 
L 1275 0 
L 697 0 
L 697 3053 
L 147 3053 
L 147 3500 
L 697 3500 
L 697 3744 
Q 697 4328 969 4595 
Q 1241 4863 1831 4863 
L 2375 4863 
z
" transform="scale(0.015625)"/>
     </defs>
     <use xlink:href="#DejaVuSans-70"/>
     <use xlink:href="#DejaVuSans-69" x="63.476562"/>
     <use xlink:href="#DejaVuSans-6c" x="91.259766"/>
     <use xlink:href="#DejaVuSans-6f" x="119.042969"/>
     <use xlink:href="#DejaVuSans-74" x="180.224609"/>
     <use xlink:href="#DejaVuSans-20" x="219.433594"/>
     <use xlink:href="#DejaVuSans-64" x="251.220703"/>
     <use xlink:href="#DejaVuSans-61" x="314.697266"/>
     <use xlink:href="#DejaVuSans-74" x="375.976562"/>
     <use xlink:href="#DejaVuSans-61" x="415.185547"/>
     <use xlink:href="#DejaVuSans-20" x="476.464844"/>
     <use xlink:href="#DejaVuSans-62" x="508.251953"/>
     <use xlink:href="#DejaVuSans-65" x="571.728516"/>
     <use xlink:href="#DejaVuSans-66" x="633.251953"/>
     <use xlink:href="#DejaVuSans-6f" x="668.457031"/>
     <use xlink:href="#DejaVuSans-72" x="729.638672"/>
     <use xlink:href="#DejaVuSans-65" x="768.501953"/>
    </g>
   </g>
   <g id="patch_26">
    <path d="M 370.075781 123.568594 
L 388.075781 123.568594 
L 388.075781 117.268594 
L 370.075781 117.268594 
z
" style="fill: #fc8d62; fill-opacity: 0.5"/>
   </g>
   <g id="text_25">
    <!-- study data -->
    <g transform="translate(395.275781 123.568594) scale(0.09 -0.09)">
     <use xlink:href="#DejaVuSans-73"/>
     <use xlink:href="#DejaVuSans-74" x="52.099609"/>
     <use xlink:href="#DejaVuSans-75" x="91.308594"/>
     <use xlink:href="#DejaVuSans-64" x="154.6875"/>
     <use xlink:href="#DejaVuSans-79" x="218.164062"/>
     <use xlink:href="#DejaVuSans-20" x="277.34375"/>
     <use xlink:href="#DejaVuSans-64" x="309.130859"/>
     <use xlink:href="#DejaVuSans-61" x="372.607422"/>
     <use xlink:href="#DejaVuSans-74" x="433.886719"/>
     <use xlink:href="#DejaVuSans-61" x="473.095703"/>
    </g>
   </g>
   <g id="patch_27">
    <path d="M 370.075781 136.778906 
L 388.075781 136.778906 
L 388.075781 130.478906 
L 370.075781 130.478906 
z
" style="fill: #8da0cb; fill-opacity: 0.5"/>
   </g>
   <g id="text_26">
    <!-- pilot data after -->
    <g transform="translate(395.275781 136.778906) scale(0.09 -0.09)">
     <use xlink:href="#DejaVuSans-70"/>
     <use xlink:href="#DejaVuSans-69" x="63.476562"/>
     <use xlink:href="#DejaVuSans-6c" x="91.259766"/>
     <use xlink:href="#DejaVuSans-6f" x="119.042969"/>
     <use xlink:href="#DejaVuSans-74" x="180.224609"/>
     <use xlink:href="#DejaVuSans-20" x="219.433594"/>
     <use xlink:href="#DejaVuSans-64" x="251.220703"/>
     <use xlink:href="#DejaVuSans-61" x="314.697266"/>
     <use xlink:href="#DejaVuSans-74" x="375.976562"/>
     <use xlink:href="#DejaVuSans-61" x="415.185547"/>
     <use xlink:href="#DejaVuSans-20" x="476.464844"/>
     <use xlink:href="#DejaVuSans-61" x="508.251953"/>
     <use xlink:href="#DejaVuSans-66" x="569.53125"/>
     <use xlink:href="#DejaVuSans-74" x="602.986328"/>
     <use xlink:href="#DejaVuSans-65" x="642.195312"/>
     <use xlink:href="#DejaVuSans-72" x="703.71875"/>
    </g>
   </g>
  </g>
 </g>
 <defs>
  <clipPath id="pdd473ab482">
   <rect x="50.87" y="14.76" width="458.51" height="134.628419"/>
  </clipPath>
 </defs>
</svg>
